<svg width="1070" height="265" viewBox="0 0 1070 265" fill="none" xmlns="http://www.w3.org/2000/svg">
<circle cx="49.8333" cy="49.8333" r="49.8333" transform="matrix(-1 0 0 1 1027.6 144.9)" fill="#80BD01"/>
<path d="M540.325 90.7065C542.151 97.0082 538.522 103.597 532.221 105.423C525.919 107.249 519.33 103.621 517.504 97.319C515.678 91.0173 519.306 84.4284 525.608 82.6024C531.91 80.7764 538.499 84.4047 540.325 90.7065ZM23.5074 216.136C25.3334 222.437 21.7051 229.026 15.4034 230.852C9.10161 232.678 2.51275 229.05 0.686735 222.748C-1.13928 216.447 2.48903 209.858 8.79078 208.032C15.0925 206.206 21.6814 209.834 23.5074 216.136ZM528.914 94.0127C527.673 95.8623 527.674 95.8627 527.674 95.8629C527.674 95.8627 527.674 95.8627 527.673 95.8623C527.672 95.8615 527.67 95.86 527.666 95.8576C527.659 95.8529 527.647 95.845 527.631 95.8341C527.597 95.8123 527.546 95.7782 527.475 95.7326C527.334 95.6413 527.119 95.5035 526.832 95.3245C526.258 94.9662 525.396 94.4427 524.265 93.794C522.002 92.4965 518.663 90.6995 514.394 88.7244C505.852 84.7724 493.606 80.1177 478.812 77.3144C449.265 71.7152 409.538 73.4881 368.695 103.092L366.081 99.485C408.108 69.0229 449.143 67.1579 479.642 72.9374C494.871 75.8233 507.469 80.6121 516.265 84.6812C520.664 86.7167 524.118 88.5747 526.481 89.9295C527.662 90.6069 528.571 91.1589 529.19 91.5447C529.499 91.7375 529.735 91.8889 529.897 91.9937C529.978 92.0461 530.04 92.0868 530.083 92.1153C530.105 92.1295 530.122 92.1407 530.134 92.1487C530.14 92.1527 530.145 92.1559 530.148 92.1584C530.15 92.1596 530.152 92.1608 530.153 92.1614C530.154 92.1624 530.156 92.1632 528.914 94.0127ZM368.695 103.092C327.449 132.989 303.286 165.896 274.659 194.745C246.076 223.551 213.498 247.713 156.159 259.066L155.294 254.696C211.547 243.558 243.365 219.958 271.497 191.607C299.586 163.299 324.458 129.654 366.081 99.485L368.695 103.092ZM156.159 259.066C98.9325 270.396 62.4698 261.009 40.2253 248.538C29.123 242.313 21.6242 235.354 16.8861 229.918C14.5178 227.201 12.8397 224.865 11.7455 223.193C11.1984 222.356 10.7971 221.685 10.5282 221.215C10.3938 220.98 10.2925 220.795 10.2227 220.664C10.1877 220.599 10.1607 220.547 10.1413 220.51C10.1316 220.491 10.1238 220.476 10.1178 220.464C10.1149 220.458 10.1124 220.453 10.1104 220.449C10.1094 220.447 10.1082 220.445 10.1077 220.444C10.1067 220.442 10.1057 220.44 12.0971 219.442C14.0884 218.444 14.0877 218.443 14.0871 218.441C14.0871 218.441 14.0866 218.44 14.0865 218.44C14.0863 218.44 14.0866 218.44 14.0873 218.442C14.0888 218.445 14.0921 218.451 14.0973 218.461C14.1076 218.481 14.1253 218.515 14.1507 218.562C14.2014 218.657 14.2827 218.806 14.396 219.004C14.6226 219.401 14.9776 219.995 15.4736 220.754C16.4659 222.271 18.0218 224.441 20.2443 226.991C24.6879 232.089 31.798 238.706 42.4039 244.652C63.576 256.522 98.928 265.855 155.294 254.696L156.159 259.066Z" fill="#045CC2"/>
<path d="M529.205 90.7065C527.379 97.0082 531.007 103.597 537.309 105.423C543.611 107.249 550.2 103.621 552.026 97.319C553.852 91.0173 550.223 84.4284 543.922 82.6024C537.62 80.7764 531.031 84.4047 529.205 90.7065ZM1046.02 216.136C1044.2 222.437 1047.82 229.026 1054.13 230.852C1060.43 232.678 1067.02 229.05 1068.84 222.748C1070.67 216.447 1067.04 209.858 1060.74 208.032C1054.44 206.206 1047.85 209.834 1046.02 216.136ZM540.615 94.0127C541.857 95.8623 541.856 95.8627 541.856 95.8629C541.856 95.8627 541.856 95.8627 541.857 95.8623C541.858 95.8615 541.86 95.86 541.864 95.8576C541.871 95.8529 541.883 95.845 541.899 95.8341C541.932 95.8123 541.984 95.7782 542.055 95.7326C542.196 95.6413 542.411 95.5035 542.698 95.3245C543.272 94.9662 544.134 94.4427 545.265 93.794C547.528 92.4965 550.866 90.6995 555.136 88.7244C563.678 84.7724 575.924 80.1177 590.717 77.3144C620.264 71.7152 659.992 73.4881 700.835 103.092L703.449 99.485C661.422 69.0229 620.387 67.1579 589.888 72.9374C574.658 75.8233 562.061 80.6121 553.265 84.6812C548.865 86.7167 545.412 88.5747 543.049 89.9295C541.868 90.6069 540.959 91.1589 540.34 91.5447C540.031 91.7375 539.794 91.8889 539.633 91.9937C539.552 92.0461 539.489 92.0868 539.446 92.1153C539.425 92.1295 539.408 92.1407 539.396 92.1487C539.39 92.1527 539.385 92.1559 539.381 92.1584C539.38 92.1596 539.378 92.1608 539.377 92.1614C539.375 92.1624 539.374 92.1632 540.615 94.0127ZM700.835 103.092C742.081 132.989 766.244 165.896 794.87 194.745C823.454 223.551 856.032 247.713 913.371 259.066L914.236 254.696C857.983 243.558 826.164 219.958 798.033 191.607C769.943 163.299 745.072 129.654 703.449 99.485L700.835 103.092ZM913.371 259.066C970.597 270.396 1007.06 261.009 1029.3 248.538C1040.41 242.313 1047.91 235.354 1052.64 229.918C1055.01 227.201 1056.69 224.865 1057.78 223.193C1058.33 222.356 1058.73 221.685 1059 221.215C1059.14 220.98 1059.24 220.795 1059.31 220.664C1059.34 220.599 1059.37 220.547 1059.39 220.51C1059.4 220.491 1059.41 220.476 1059.41 220.464C1059.41 220.458 1059.42 220.453 1059.42 220.449C1059.42 220.447 1059.42 220.445 1059.42 220.444C1059.42 220.442 1059.42 220.44 1057.43 219.442C1055.44 218.444 1055.44 218.443 1055.44 218.441C1055.44 218.441 1055.44 218.44 1055.44 218.44C1055.44 218.44 1055.44 218.44 1055.44 218.442C1055.44 218.445 1055.44 218.451 1055.43 218.461C1055.42 218.481 1055.4 218.515 1055.38 218.562C1055.33 218.657 1055.25 218.806 1055.13 219.004C1054.91 219.401 1054.55 219.995 1054.06 220.754C1053.06 222.271 1051.51 224.441 1049.29 226.991C1044.84 232.089 1037.73 238.706 1027.13 244.652C1005.95 256.522 970.602 265.855 914.236 254.696L913.371 259.066Z" fill="#045CC2"/>
<circle cx="91.7667" cy="194.733" r="49.8333" fill="#80BD01"/>
<g filter="url(#filter0_d_851_434)">
<circle cx="544.1" cy="69.0001" r="56.7333" fill="#80BD01"/>
</g>
<defs>
<filter id="filter0_d_851_434" x="472.033" y="5.72205e-05" width="144.133" height="144.133" filterUnits="userSpaceOnUse" color-interpolation-filters="sRGB">
<feFlood flood-opacity="0" result="BackgroundImageFix"/>
<feColorMatrix in="SourceAlpha" type="matrix" values="0 0 0 0 0 0 0 0 0 0 0 0 0 0 0 0 0 0 127 0" result="hardAlpha"/>
<feOffset dy="3.06667"/>
<feGaussianBlur stdDeviation="7.66667"/>
<feComposite in2="hardAlpha" operator="out"/>
<feColorMatrix type="matrix" values="0 0 0 0 0 0 0 0 0 0 0 0 0 0 0 0 0 0 0.25 0"/>
<feBlend mode="normal" in2="BackgroundImageFix" result="effect1_dropShadow_851_434"/>
<feBlend mode="normal" in="SourceGraphic" in2="effect1_dropShadow_851_434" result="shape"/>
</filter>
</defs>
</svg>
