<svg width="1053" height="299" viewBox="0 0 1053 299" fill="none" xmlns="http://www.w3.org/2000/svg">
<circle cx="49.8333" cy="49.8333" r="49.8333" transform="matrix(-1 0 0 1 1013.67 11)" fill="#80BD01"/>
<path d="M1.07902 36.4416C3.30582 30.2701 10.114 27.0723 16.2855 29.2991C22.4571 31.5259 25.6549 38.3341 23.4281 44.5056C21.2013 50.6771 14.3931 53.8749 8.22158 51.6481C2.05006 49.4214 -1.14778 42.6132 1.07902 36.4416ZM492.918 238.745C495.145 232.573 501.953 229.375 508.125 231.602C514.296 233.829 517.494 240.637 515.267 246.809C513.041 252.98 506.232 256.178 500.061 253.951C493.889 251.724 490.692 244.916 492.918 238.745ZM12.2536 40.4736C14.3449 39.7069 14.3446 39.7062 14.3445 39.7059C14.3446 39.7062 14.3446 39.7062 14.3449 39.7069C14.3453 39.7082 14.3463 39.7108 14.3478 39.7148C14.3508 39.7228 14.3557 39.7361 14.3627 39.7547C14.3766 39.7918 14.3986 39.8498 14.4288 39.9282C14.4892 40.0849 14.5823 40.3228 14.7093 40.6365C14.9633 41.2638 15.3528 42.1939 15.8867 43.3836C16.9546 45.7633 18.5993 49.1794 20.8922 53.2868C25.4802 61.5051 32.6513 72.4686 42.9717 83.432C63.5847 105.329 96.767 127.246 147.21 127.303L147.205 131.758C95.2996 131.699 61.0049 109.088 39.728 86.4855C29.1035 75.1992 21.7264 63.9201 17.0025 55.4583C14.6395 51.2256 12.9373 47.6922 11.8223 45.2075C11.2647 43.965 10.8537 42.9841 10.5801 42.3085C10.4433 41.9707 10.3409 41.7092 10.2716 41.5293C10.237 41.4394 10.2106 41.3699 10.1925 41.3215C10.1834 41.2973 10.1763 41.2784 10.1713 41.2648C10.1688 41.258 10.1667 41.2526 10.1652 41.2485C10.1645 41.2465 10.1637 41.2444 10.1633 41.2434C10.1627 41.2417 10.1622 41.2403 12.2536 40.4736ZM147.21 127.303C198.152 127.36 237.043 114.94 277.159 108.427C317.215 101.923 357.774 101.524 410.835 126.043L408.966 130.087C356.91 106.033 317.296 106.424 277.873 112.824C238.509 119.216 198.612 131.815 147.205 131.758L147.21 127.303ZM410.835 126.043C463.791 150.514 487.773 179.54 498.439 202.704C503.762 214.266 505.738 224.304 506.376 231.487C506.695 235.077 506.68 237.953 506.582 239.949C506.533 240.947 506.463 241.726 506.404 242.265C506.375 242.534 506.348 242.743 506.328 242.89C506.318 242.963 506.309 243.021 506.303 243.063C506.3 243.084 506.297 243.1 506.295 243.113C506.294 243.12 506.293 243.125 506.292 243.13C506.292 243.132 506.291 243.134 506.291 243.135C506.291 243.138 506.291 243.14 504.093 242.777C501.895 242.414 501.895 242.415 501.895 242.417C501.895 242.417 501.895 242.418 501.895 242.418C501.895 242.418 501.895 242.418 501.895 242.416C501.895 242.413 501.897 242.406 501.898 242.395C501.902 242.372 501.907 242.334 501.915 242.281C501.929 242.175 501.951 242.007 501.976 241.78C502.025 241.326 502.088 240.636 502.132 239.731C502.221 237.92 502.238 235.25 501.939 231.881C501.34 225.145 499.478 215.612 494.392 204.567C484.241 182.52 461.126 154.19 408.966 130.087L410.835 126.043Z" fill="#045CC2"/>
<path d="M1052.55 59.6349C1050.87 53.2928 1044.37 49.5138 1038.03 51.1942C1031.68 52.8746 1027.91 59.3782 1029.59 65.7203C1031.27 72.0624 1037.77 75.8415 1044.11 74.161C1050.45 72.4806 1054.23 65.977 1052.55 59.6349ZM544.953 218.302C543.273 211.959 536.769 208.18 530.427 209.861C524.085 211.541 520.306 218.045 521.986 224.387C523.667 230.729 530.17 234.508 536.512 232.828C542.854 231.147 546.633 224.644 544.953 218.302ZM1041.07 62.6776C1039.05 61.7316 1039.05 61.7309 1039.05 61.7306C1039.05 61.7309 1039.05 61.7309 1039.05 61.7315C1039.05 61.7328 1039.05 61.7353 1039.05 61.7392C1039.05 61.7469 1039.04 61.7597 1039.03 61.7776C1039.01 61.8133 1038.99 61.8692 1038.95 61.9447C1038.88 62.0956 1038.76 62.3244 1038.61 62.6258C1038.3 63.2286 1037.83 64.1212 1037.2 65.2599C1035.92 67.5375 1033.99 70.7972 1031.35 74.6891C1026.06 82.4762 1017.96 92.7731 1006.72 102.795C984.281 122.812 949.315 141.754 899.058 137.414L898.675 141.852C950.388 146.318 986.523 126.782 1009.69 106.12C1021.26 95.8024 1029.59 85.2093 1035.03 77.1914C1037.76 73.1807 1039.76 69.8091 1041.09 67.4311C1041.75 66.2419 1042.24 65.3006 1042.58 64.6514C1042.74 64.3268 1042.87 64.0752 1042.95 63.902C1042.99 63.8155 1043.03 63.7485 1043.05 63.7019C1043.06 63.6786 1043.07 63.6604 1043.07 63.6473C1043.08 63.6408 1043.08 63.6355 1043.08 63.6316C1043.08 63.6296 1043.08 63.6276 1043.08 63.6266C1043.09 63.625 1043.09 63.6236 1041.07 62.6776ZM899.058 137.414C848.305 133.031 810.645 117.269 771.249 107.285C731.912 97.3144 691.543 93.382 636.547 113.183L638.056 117.374C692.011 97.9483 731.439 101.79 770.155 111.603C808.812 121.4 847.459 137.43 898.675 141.852L899.058 137.414ZM636.547 113.183C581.659 132.945 555.239 159.77 542.595 181.917C536.284 192.971 533.441 202.798 532.179 209.898C531.548 213.447 531.313 216.313 531.237 218.311C531.198 219.309 531.2 220.091 531.212 220.633C531.218 220.903 531.226 221.114 531.233 221.262C531.237 221.336 531.241 221.394 531.243 221.436C531.245 221.458 531.246 221.475 531.247 221.488C531.247 221.494 531.248 221.5 531.248 221.504C531.248 221.506 531.248 221.509 531.248 221.51C531.248 221.512 531.249 221.514 533.47 221.344C535.691 221.174 535.691 221.176 535.691 221.177C535.691 221.177 535.691 221.178 535.691 221.178C535.691 221.179 535.691 221.178 535.691 221.177C535.69 221.173 535.69 221.166 535.689 221.155C535.688 221.132 535.686 221.094 535.683 221.04C535.678 220.933 535.671 220.764 535.666 220.535C535.656 220.079 535.654 219.386 535.688 218.481C535.758 216.67 535.973 214.008 536.565 210.677C537.748 204.019 540.435 194.685 546.463 184.126C558.498 163.047 583.994 136.839 638.056 117.374L636.547 113.183Z" fill="#045CC2"/>
<circle cx="90.8333" cy="49.8333" r="49.8333" fill="#80BD01"/>
<g filter="url(#filter0_d_851_434)">
<path d="M573.233 223.733C573.233 255.066 547.833 280.467 516.5 280.467C485.167 280.467 459.767 255.066 459.767 223.733C459.767 192.4 485.167 167 516.5 167C547.833 167 573.233 192.4 573.233 223.733Z" fill="#80BD01"/>
</g>
<defs>
<filter id="filter0_d_851_434" x="444.433" y="154.733" width="144.133" height="144.133" filterUnits="userSpaceOnUse" color-interpolation-filters="sRGB">
<feFlood flood-opacity="0" result="BackgroundImageFix"/>
<feColorMatrix in="SourceAlpha" type="matrix" values="0 0 0 0 0 0 0 0 0 0 0 0 0 0 0 0 0 0 127 0" result="hardAlpha"/>
<feOffset dy="3.06667"/>
<feGaussianBlur stdDeviation="7.66667"/>
<feComposite in2="hardAlpha" operator="out"/>
<feColorMatrix type="matrix" values="0 0 0 0 0 0 0 0 0 0 0 0 0 0 0 0 0 0 0.25 0"/>
<feBlend mode="normal" in2="BackgroundImageFix" result="effect1_dropShadow_851_434"/>
<feBlend mode="normal" in="SourceGraphic" in2="effect1_dropShadow_851_434" result="shape"/>
</filter>
</defs>
</svg>
